<?xml version="1.0" encoding="UTF-8"?>
<svg fill="none" viewBox="0 0 145 144" xmlns="http://www.w3.org/2000/svg">
<g clip-path="url(#c)">
<path d="m72.45 31.5c22.367 0 40.5 18.132 40.5 40.5s-18.133 40.5-40.5 40.5c-22.368 0-40.5-18.132-40.5-40.5s18.132-40.5 40.5-40.5z" fill="url(#b)"/>
<path d="m72.45 119.25c3.728 0 6.75 3.022 6.75 6.75v6.75c0 3.728-3.022 6.75-6.75 6.75-3.7281 0-6.75-3.022-6.75-6.75v-6.75c0-3.728 3.0219-6.75 6.75-6.75zm42.957-13.839 4.773 4.773c2.636 2.636 2.636 6.909 0 9.546-2.636 2.636-6.91 2.636-9.546 0l-4.773-4.773c-2.636-2.637-2.636-6.91 0-9.546s6.91-2.636 9.546 0zm-85.914 0c2.6361-2.636 6.91-2.636 9.546 0 2.4332 2.433 2.6204 6.262 0.5615 8.91l-0.5615 0.636-4.773 4.773c-2.636 2.636-6.9099 2.636-9.5459 0-2.4333-2.433-2.6205-6.262-0.5615-8.91l0.5615-0.636 4.7729-4.773zm-11.043-40.161c3.7278 0 6.75 3.022 6.75 6.75 0 3.4617-2.6058 6.3147-5.9629 6.7046l-0.7871 0.0454h-6.75c-3.7279 0-6.75-3.022-6.75-6.75 0-3.4617 2.6058-6.3147 5.9628-6.7046l0.7872-0.0454h6.75zm114.75 0c3.728 0 6.75 3.022 6.75 6.75s-3.022 6.75-6.75 6.75h-6.75c-3.728 0-6.75-3.022-6.75-6.75s3.022-6.75 6.75-6.75h6.75zm-108.48-40.98c2.4332-2.4332 6.2621-2.6204 8.91-0.5615l0.6359 0.5615 4.773 4.773c2.636 2.636 2.636 6.9099 0 9.546-2.4333 2.4332-6.2621 2.6204-8.9101 0.5615l-0.6359-0.5615-4.7729-4.773c-2.6361-2.6361-2.6361-6.9099 0-9.546zm95.46 2e-4c2.636 2.636 2.636 6.9099 0 9.5459l-4.773 4.773c-2.637 2.636-6.91 2.636-9.546 0-2.636-2.6361-2.636-6.9099 0-9.546l4.773-4.7729c2.636-2.6361 6.909-2.6361 9.546 0zm-47.73-19.77c3.728 0 6.75 3.0221 6.75 6.75v6.75c0 3.7279-3.022 6.75-6.75 6.75-3.7281 0-6.75-3.0221-6.75-6.75v-6.75c0-3.7279 3.0219-6.75 6.75-6.75z" fill="url(#a)"/>
</g>
<defs>
<radialGradient id="b" cx="0" cy="0" r="1" gradientTransform="translate(44.325 41.625) rotate(43.02) scale(93.858)" gradientUnits="userSpaceOnUse">
<stop stop-color="#FFE475" offset=".19367"/>
<stop stop-color="#FFB029" offset=".52928"/>
<stop stop-color="#FF9100" offset=".78047"/>
</radialGradient>
<linearGradient id="a" x1="4.1062" x2="140.79" y1="3.6562" y2="140.34" gradientUnits="userSpaceOnUse">
<stop stop-color="#FFE475" offset=".16667"/>
<stop stop-color="#FFBF29" offset=".79861"/>
</linearGradient>
<clipPath id="c">
<rect transform="translate(.44995)" width="144" height="144" fill="#fff"/>
</clipPath>
</defs>
</svg>
